<svg id="svg" version="1.1" xmlns="http://www.w3.org/2000/svg" xmlns:xlink="http://www.w3.org/1999/xlink" width="400" height="400" viewBox="0, 0, 400,400"><g id="svgg"><path id="path0" d="M199.604 63.947 C 199.360 64.299,198.978 64.776,198.756 65.006 C 198.534 65.236,198.228 65.668,198.076 65.965 C 197.924 66.263,196.973 67.759,195.963 69.290 C 194.953 70.821,193.884 72.492,193.589 73.004 C 193.293 73.516,192.893 74.094,192.700 74.287 C 192.311 74.676,189.635 78.614,189.635 78.798 C 189.635 78.976,188.430 80.702,188.255 80.774 C 188.170 80.809,188.100 80.960,188.100 81.110 C 188.100 81.260,188.013 81.382,187.908 81.382 C 187.802 81.382,187.716 81.512,187.716 81.670 C 187.716 81.828,187.630 81.958,187.524 81.958 C 187.418 81.958,187.332 82.087,187.332 82.246 C 187.332 82.404,187.246 82.534,187.140 82.534 C 187.035 82.534,186.948 82.663,186.948 82.821 C 186.948 82.980,186.862 83.109,186.756 83.109 C 186.651 83.109,186.564 83.239,186.564 83.397 C 186.564 83.556,186.435 83.685,186.276 83.685 C 186.118 83.685,185.988 83.815,185.988 83.973 C 185.988 84.131,185.902 84.261,185.797 84.261 C 185.691 84.261,185.605 84.391,185.605 84.549 C 185.605 84.707,185.518 84.837,185.413 84.837 C 185.307 84.837,185.221 85.010,185.221 85.221 C 185.221 85.432,185.134 85.605,185.029 85.605 C 184.923 85.605,184.837 85.734,184.837 85.893 C 184.837 86.051,184.750 86.180,184.645 86.180 C 184.539 86.180,184.453 86.310,184.453 86.468 C 184.453 86.627,184.367 86.756,184.261 86.756 C 184.155 86.756,184.069 86.886,184.069 87.044 C 184.069 87.202,183.983 87.332,183.877 87.332 C 183.772 87.332,183.685 87.462,183.685 87.620 C 183.685 87.778,183.599 87.908,183.493 87.908 C 183.388 87.908,183.301 88.037,183.301 88.196 C 183.301 88.354,183.215 88.484,183.109 88.484 C 183.004 88.484,182.917 88.613,182.917 88.772 C 182.917 88.930,182.831 89.060,182.726 89.060 C 182.620 89.060,182.534 89.189,182.534 89.347 C 182.534 89.506,182.447 89.635,182.342 89.635 C 182.236 89.635,182.150 89.715,182.150 89.813 C 182.150 90.060,180.259 93.143,179.963 93.378 C 179.706 93.583,176.967 97.614,176.967 97.787 C 176.967 97.998,173.760 102.802,173.261 103.339 C 172.977 103.645,172.745 103.970,172.745 104.063 C 172.745 104.155,171.795 105.652,170.633 107.390 C 169.472 109.127,168.522 110.599,168.522 110.662 C 168.522 110.829,167.334 112.540,167.063 112.764 C 166.847 112.942,165.116 115.563,163.532 118.112 C 163.162 118.706,162.795 119.192,162.716 119.193 C 162.637 119.193,162.572 119.323,162.572 119.482 C 162.572 119.640,162.486 119.770,162.380 119.770 C 162.274 119.770,162.188 119.899,162.188 120.058 C 162.188 120.216,162.102 120.345,161.996 120.345 C 161.891 120.345,161.804 120.475,161.804 120.633 C 161.804 120.792,161.718 120.921,161.612 120.921 C 161.507 120.921,161.420 121.051,161.420 121.209 C 161.420 121.368,161.291 121.497,161.132 121.497 C 160.974 121.497,160.845 121.627,160.845 121.785 C 160.845 121.943,160.758 122.073,160.653 122.073 C 160.547 122.073,160.461 122.202,160.461 122.361 C 160.461 122.519,160.374 122.649,160.269 122.649 C 160.163 122.649,160.077 122.821,160.077 123.033 C 160.077 123.244,159.990 123.417,159.885 123.417 C 159.779 123.417,159.693 123.546,159.693 123.704 C 159.693 123.863,159.607 123.992,159.501 123.992 C 159.395 123.992,159.309 124.122,159.309 124.280 C 159.309 124.439,159.223 124.568,159.117 124.568 C 159.012 124.568,158.925 124.698,158.925 124.856 C 158.925 125.014,158.839 125.144,158.733 125.144 C 158.628 125.144,158.541 125.274,158.541 125.432 C 158.541 125.590,158.455 125.720,158.349 125.720 C 158.244 125.720,158.157 125.849,158.157 126.008 C 158.157 126.166,158.071 126.296,157.965 126.296 C 157.860 126.296,157.774 126.425,157.774 126.583 C 157.774 126.742,157.687 126.871,157.582 126.871 C 157.476 126.871,157.390 127.001,157.390 127.159 C 157.390 127.318,157.303 127.447,157.198 127.447 C 157.092 127.447,157.006 127.577,157.006 127.735 C 157.006 127.893,156.919 128.023,156.814 128.023 C 156.708 128.023,156.622 128.105,156.622 128.205 C 156.622 128.474,155.288 130.700,154.885 131.103 C 154.528 131.461,151.823 135.422,151.823 135.588 C 151.823 135.786,148.571 140.660,148.100 141.168 C 147.825 141.464,147.601 141.782,147.601 141.875 C 147.601 141.967,146.651 143.464,145.489 145.202 C 144.328 146.939,143.378 148.411,143.378 148.474 C 143.378 148.638,142.178 150.373,142.018 150.441 C 141.895 150.493,141.190 151.554,138.040 156.430 C 137.460 157.327,136.913 158.090,136.823 158.125 C 136.734 158.161,136.660 158.312,136.660 158.461 C 136.660 158.611,136.574 158.733,136.468 158.733 C 136.363 158.733,136.276 158.863,136.276 159.021 C 136.276 159.179,136.190 159.309,136.084 159.309 C 135.979 159.309,135.893 159.439,135.893 159.597 C 135.893 159.755,135.763 159.885,135.605 159.885 C 135.446 159.885,135.317 160.014,135.317 160.173 C 135.317 160.331,135.230 160.461,135.125 160.461 C 135.019 160.461,134.933 160.633,134.933 160.845 C 134.933 161.056,134.846 161.228,134.741 161.228 C 134.635 161.228,134.549 161.358,134.549 161.516 C 134.549 161.675,134.463 161.804,134.357 161.804 C 134.251 161.804,134.165 161.934,134.165 162.092 C 134.165 162.250,134.079 162.380,133.973 162.380 C 133.868 162.380,133.781 162.510,133.781 162.668 C 133.781 162.826,133.695 162.956,133.589 162.956 C 133.484 162.956,133.397 163.085,133.397 163.244 C 133.397 163.402,133.311 163.532,133.205 163.532 C 133.100 163.532,133.013 163.661,133.013 163.820 C 133.013 163.978,132.927 164.107,132.821 164.107 C 132.716 164.107,132.630 164.237,132.630 164.395 C 132.630 164.554,132.543 164.683,132.438 164.683 C 132.332 164.683,132.246 164.813,132.246 164.971 C 132.246 165.130,132.159 165.259,132.054 165.259 C 131.948 165.259,131.862 165.389,131.862 165.547 C 131.862 165.705,131.775 165.835,131.670 165.835 C 131.564 165.835,131.478 165.964,131.478 166.123 C 131.478 166.281,131.392 166.411,131.286 166.411 C 131.180 166.411,131.094 166.540,131.094 166.699 C 131.094 166.857,131.008 166.987,130.902 166.987 C 130.797 166.987,130.710 167.122,130.710 167.288 C 130.710 167.592,129.675 169.224,129.256 169.578 C 129.013 169.784,126.679 173.244,126.679 173.399 C 126.679 173.600,123.327 178.625,122.905 179.057 C 122.658 179.309,122.457 179.591,122.457 179.685 C 122.457 179.778,121.507 181.276,120.345 183.013 C 119.184 184.751,118.234 186.223,118.234 186.286 C 118.234 186.453,117.070 188.147,116.715 188.495 C 116.548 188.660,115.857 189.654,115.181 190.703 C 112.178 195.363,111.448 196.453,111.296 196.513 C 111.206 196.548,111.132 196.699,111.132 196.849 C 111.132 196.999,111.046 197.121,110.940 197.121 C 110.835 197.121,110.749 197.250,110.749 197.409 C 110.749 197.567,110.619 197.697,110.461 197.697 C 110.302 197.697,110.173 197.826,110.173 197.985 C 110.173 198.143,110.086 198.273,109.981 198.273 C 109.875 198.273,109.789 198.445,109.789 198.656 C 109.789 198.868,109.702 199.040,109.597 199.040 C 109.491 199.040,109.405 199.170,109.405 199.328 C 109.405 199.487,109.319 199.616,109.213 199.616 C 109.107 199.616,109.021 199.746,109.021 199.904 C 109.021 200.062,108.935 200.192,108.829 200.192 C 108.724 200.192,108.637 200.321,108.637 200.480 C 108.637 200.638,108.551 200.768,108.445 200.768 C 108.340 200.768,108.253 200.897,108.253 201.056 C 108.253 201.214,108.167 201.344,108.061 201.344 C 107.956 201.344,107.869 201.473,107.869 201.631 C 107.869 201.790,107.783 201.919,107.678 201.919 C 107.572 201.919,107.486 202.049,107.486 202.207 C 107.486 202.366,107.399 202.495,107.294 202.495 C 107.188 202.495,107.102 202.625,107.102 202.783 C 107.102 202.941,107.015 203.071,106.910 203.071 C 106.804 203.071,106.718 203.201,106.718 203.359 C 106.718 203.517,106.631 203.647,106.526 203.647 C 106.420 203.647,106.334 203.776,106.334 203.935 C 106.334 204.093,106.248 204.223,106.142 204.223 C 106.036 204.223,105.950 204.352,105.950 204.511 C 105.950 204.669,105.864 204.798,105.758 204.798 C 105.653 204.798,105.566 204.971,105.566 205.182 C 105.566 205.393,105.480 205.566,105.374 205.566 C 105.269 205.566,105.182 205.696,105.182 205.854 C 105.182 206.012,105.096 206.142,104.990 206.142 C 104.885 206.142,104.798 206.252,104.798 206.387 C 104.798 206.522,104.561 206.894,104.271 207.213 C 103.980 207.532,103.189 208.652,102.512 209.703 C 101.835 210.753,100.586 212.692,99.736 214.012 C 98.886 215.331,98.041 216.561,97.859 216.744 C 97.676 216.927,97.439 217.229,97.331 217.415 C 97.161 217.710,96.786 217.408,94.489 215.127 C 90.848 211.511,85.309 206.092,83.836 204.702 C 81.426 202.430,77.927 198.971,77.927 198.861 C 77.927 198.799,76.457 197.415,74.661 195.786 C 72.864 194.156,71.238 192.557,71.046 192.232 C 70.854 191.906,69.711 190.779,68.506 189.726 C 67.301 188.673,65.625 187.078,64.782 186.180 C 62.543 183.796,60.898 182.198,59.767 181.306 C 59.218 180.873,57.670 179.333,56.328 177.884 C 54.985 176.436,53.746 175.205,53.575 175.148 C 53.403 175.092,51.881 173.657,50.192 171.959 C 48.503 170.261,45.782 167.608,44.146 166.062 C 42.510 164.516,40.739 162.782,40.211 162.208 C 38.666 160.530,37.266 159.183,35.271 157.456 C 34.244 156.566,33.080 155.431,32.685 154.934 C 31.714 153.713,29.047 151.122,28.195 150.573 C 27.815 150.328,26.441 148.949,25.141 147.509 C 23.841 146.069,22.547 144.772,22.266 144.626 C 21.985 144.481,20.596 143.173,19.179 141.719 C 17.762 140.265,16.132 138.641,15.556 138.108 C 13.484 136.193,9.488 132.307,7.784 130.551 C 6.828 129.566,5.021 127.844,3.768 126.725 C 2.515 125.606,1.154 124.267,0.745 123.749 C 0.331 123.225,0.000 122.942,0.000 123.111 C 0.000 123.279,0.065 123.417,0.144 123.417 C 0.223 123.418,0.547 123.913,0.864 124.519 C 1.180 125.125,1.547 125.735,1.679 125.876 C 1.811 126.016,1.971 126.340,2.036 126.597 C 2.100 126.853,2.224 127.063,2.311 127.063 C 2.398 127.063,2.521 127.226,2.584 127.426 C 2.648 127.625,2.913 128.018,3.173 128.299 C 3.434 128.581,3.647 128.979,3.647 129.185 C 3.647 129.390,3.728 129.559,3.826 129.559 C 3.925 129.559,4.115 129.861,4.249 130.230 C 4.382 130.600,4.555 130.902,4.633 130.902 C 4.710 130.902,4.883 131.204,5.017 131.574 C 5.150 131.943,5.310 132.246,5.372 132.246 C 5.433 132.246,5.740 132.739,6.053 133.343 C 6.366 133.946,6.734 134.561,6.871 134.709 C 7.008 134.858,7.170 135.228,7.231 135.532 C 7.292 135.836,7.396 136.085,7.462 136.085 C 7.528 136.085,7.841 136.581,8.157 137.187 C 8.474 137.793,8.820 138.394,8.925 138.523 C 9.031 138.653,9.225 138.887,9.357 139.045 C 9.489 139.202,9.597 139.414,9.597 139.515 C 9.597 139.616,9.665 139.728,9.748 139.763 C 9.988 139.865,10.940 141.592,10.940 141.925 C 10.940 142.091,11.021 142.226,11.120 142.226 C 11.219 142.226,11.409 142.529,11.542 142.898 C 11.676 143.268,11.849 143.570,11.926 143.570 C 12.004 143.570,12.177 143.872,12.310 144.242 C 12.444 144.611,12.604 144.914,12.665 144.914 C 12.727 144.914,13.033 145.407,13.346 146.011 C 13.659 146.614,14.028 147.229,14.165 147.377 C 14.302 147.526,14.464 147.896,14.525 148.200 C 14.586 148.504,14.705 148.752,14.790 148.752 C 14.876 148.752,15.001 148.928,15.069 149.142 C 15.137 149.357,15.402 149.758,15.658 150.034 C 15.914 150.310,16.123 150.653,16.123 150.796 C 16.123 150.939,16.199 151.056,16.291 151.056 C 16.384 151.056,16.574 151.336,16.712 151.679 C 16.851 152.023,17.017 152.346,17.081 152.399 C 17.342 152.615,18.234 154.312,18.234 154.593 C 18.234 154.759,18.315 154.894,18.414 154.894 C 18.512 154.894,18.703 155.197,18.836 155.566 C 18.970 155.936,19.142 156.238,19.220 156.238 C 19.298 156.238,19.470 156.540,19.604 156.910 C 19.737 157.279,19.897 157.582,19.959 157.582 C 20.021 157.582,20.327 158.075,20.640 158.679 C 20.953 159.282,21.321 159.897,21.459 160.045 C 21.596 160.194,21.758 160.564,21.818 160.868 C 21.879 161.172,22.026 161.421,22.145 161.421 C 22.264 161.421,22.620 161.917,22.937 162.523 C 23.253 163.129,23.615 163.734,23.740 163.867 C 23.865 164.001,24.028 164.304,24.102 164.540 C 24.176 164.777,24.293 165.014,24.363 165.067 C 24.622 165.262,25.528 166.969,25.528 167.261 C 25.528 167.427,25.609 167.562,25.707 167.562 C 25.806 167.562,25.996 167.865,26.130 168.234 C 26.263 168.604,26.436 168.906,26.514 168.906 C 26.591 168.906,26.764 169.208,26.898 169.578 C 27.031 169.947,27.190 170.250,27.250 170.250 C 27.310 170.250,27.572 170.638,27.831 171.113 C 28.091 171.588,28.370 171.977,28.451 171.977 C 28.532 171.977,28.599 172.070,28.599 172.183 C 28.599 172.296,28.733 172.522,28.896 172.686 C 29.060 172.849,29.243 173.232,29.304 173.536 C 29.365 173.840,29.469 174.089,29.535 174.089 C 29.601 174.089,29.914 174.585,30.230 175.191 C 30.547 175.797,30.908 176.402,31.033 176.535 C 31.159 176.668,31.321 176.972,31.395 177.208 C 31.469 177.445,31.587 177.682,31.657 177.735 C 31.915 177.930,32.821 179.637,32.821 179.929 C 32.821 180.095,32.902 180.230,33.001 180.230 C 33.100 180.230,33.290 180.533,33.423 180.902 C 33.557 181.272,33.730 181.574,33.807 181.574 C 33.885 181.574,34.058 181.876,34.191 182.246 C 34.325 182.615,34.528 182.917,34.642 182.917 C 34.757 182.917,35.106 183.411,35.419 184.014 C 35.732 184.618,36.101 185.233,36.238 185.381 C 36.375 185.530,36.537 185.900,36.598 186.204 C 36.659 186.508,36.762 186.757,36.828 186.757 C 36.894 186.757,37.207 187.253,37.524 187.859 C 37.841 188.465,38.202 189.069,38.327 189.203 C 38.452 189.336,38.615 189.639,38.689 189.876 C 38.763 190.113,38.881 190.350,38.951 190.403 C 39.209 190.598,40.115 192.305,40.115 192.597 C 40.115 192.763,40.196 192.898,40.295 192.898 C 40.393 192.898,40.584 193.201,40.717 193.570 C 40.851 193.940,41.067 194.242,41.197 194.242 C 41.327 194.242,41.543 194.544,41.677 194.914 C 41.810 195.283,41.970 195.585,42.032 195.585 C 42.094 195.585,42.400 196.079,42.713 196.682 C 43.026 197.286,43.394 197.901,43.531 198.049 C 43.669 198.197,43.831 198.568,43.891 198.872 C 43.952 199.175,44.056 199.424,44.122 199.425 C 44.188 199.425,44.501 199.921,44.818 200.527 C 45.134 201.133,45.501 201.743,45.633 201.883 C 45.765 202.023,45.925 202.348,45.990 202.605 C 46.054 202.861,46.162 203.071,46.230 203.071 C 46.298 203.071,46.560 203.460,46.812 203.935 C 47.064 204.410,47.345 204.798,47.436 204.798 C 47.526 204.798,47.601 204.971,47.601 205.182 C 47.601 205.393,47.682 205.566,47.780 205.566 C 47.879 205.566,48.069 205.869,48.203 206.238 C 48.336 206.607,48.509 206.910,48.587 206.910 C 48.664 206.910,48.837 207.212,48.970 207.582 C 49.104 207.951,49.264 208.253,49.326 208.253 C 49.387 208.253,49.694 208.747,50.007 209.350 C 50.320 209.954,50.688 210.569,50.825 210.717 C 50.962 210.865,51.124 211.235,51.185 211.539 C 51.246 211.843,51.350 212.092,51.416 212.093 C 51.482 212.093,51.795 212.589,52.111 213.195 C 52.428 213.801,52.795 214.411,52.927 214.551 C 53.059 214.691,53.219 215.016,53.283 215.273 C 53.348 215.529,53.499 215.740,53.620 215.742 C 53.871 215.745,54.894 217.514,54.894 217.946 C 54.894 218.105,54.975 218.234,55.074 218.234 C 55.173 218.234,55.363 218.536,55.496 218.906 C 55.630 219.275,55.803 219.578,55.880 219.578 C 55.958 219.578,56.131 219.880,56.264 220.250 C 56.398 220.619,56.558 220.921,56.619 220.921 C 56.681 220.921,56.987 221.415,57.300 222.018 C 57.613 222.622,57.982 223.237,58.119 223.385 C 58.256 223.533,58.418 223.903,58.479 224.207 C 58.540 224.511,58.643 224.760,58.710 224.760 C 58.776 224.760,59.036 225.149,59.288 225.624 C 59.540 226.099,59.821 226.488,59.912 226.488 C 60.002 226.488,60.077 226.617,60.077 226.775 C 60.077 226.934,60.153 227.063,60.245 227.063 C 60.338 227.063,60.528 227.344,60.666 227.687 C 60.805 228.030,60.971 228.354,61.035 228.407 C 61.296 228.622,62.188 230.320,62.188 230.600 C 62.188 230.766,62.269 230.902,62.368 230.902 C 62.466 230.902,62.656 231.204,62.790 231.574 C 62.924 231.943,63.096 232.246,63.174 232.246 C 63.251 232.246,63.424 232.548,63.558 232.917 C 63.691 233.287,63.851 233.589,63.913 233.589 C 63.975 233.589,64.281 234.083,64.594 234.686 C 64.907 235.290,65.264 235.893,65.387 236.028 C 65.511 236.162,65.669 236.532,65.739 236.850 C 65.808 237.168,65.967 237.428,66.090 237.429 C 66.214 237.429,66.574 237.925,66.891 238.531 C 67.207 239.136,67.569 239.741,67.694 239.875 C 67.819 240.008,67.982 240.311,68.056 240.548 C 68.129 240.785,68.247 241.022,68.317 241.075 C 68.576 241.270,69.482 242.976,69.482 243.268 C 69.482 243.434,69.563 243.570,69.661 243.570 C 69.760 243.570,69.950 243.872,70.084 244.242 C 70.217 244.611,70.385 244.914,70.457 244.914 C 70.528 244.914,70.702 245.194,70.842 245.537 C 70.982 245.881,71.202 246.268,71.330 246.399 C 71.458 246.531,71.764 247.067,72.010 247.591 C 72.256 248.116,72.561 248.548,72.689 248.553 C 72.817 248.557,73.025 248.906,73.151 249.328 C 73.278 249.750,73.432 250.096,73.495 250.097 C 73.557 250.097,73.868 250.593,74.184 251.199 C 74.501 251.804,74.862 252.409,74.987 252.543 C 75.112 252.676,75.275 252.979,75.349 253.216 C 75.423 253.453,75.541 253.690,75.611 253.743 C 75.869 253.938,76.775 255.644,76.775 255.936 C 76.775 256.102,76.856 256.238,76.955 256.238 C 77.054 256.238,77.244 256.540,77.377 256.910 C 77.511 257.279,77.679 257.582,77.750 257.582 C 77.822 257.582,77.996 257.861,78.138 258.203 C 78.280 258.546,78.634 259.075,78.926 259.380 C 79.217 259.685,79.561 260.226,79.690 260.582 C 79.818 260.937,79.989 261.228,80.069 261.228 C 80.149 261.228,80.318 261.574,80.445 261.996 C 80.571 262.418,80.726 262.764,80.789 262.765 C 80.851 262.765,81.161 263.261,81.478 263.867 C 81.795 264.472,82.156 265.077,82.281 265.211 C 82.406 265.344,82.569 265.647,82.643 265.884 C 82.717 266.121,82.835 266.358,82.905 266.411 C 83.163 266.606,84.069 268.312,84.069 268.604 C 84.069 268.770,84.150 268.906,84.249 268.906 C 84.347 268.906,84.537 269.208,84.671 269.578 C 84.805 269.947,85.021 270.250,85.151 270.250 C 85.281 270.250,85.497 270.552,85.631 270.921 C 85.764 271.291,85.924 271.593,85.986 271.593 C 86.047 271.593,86.354 272.087,86.667 272.690 C 86.980 273.293,87.337 273.897,87.460 274.032 C 87.584 274.166,87.742 274.536,87.811 274.854 C 87.881 275.172,87.996 275.432,88.067 275.433 C 88.138 275.433,88.455 275.929,88.772 276.535 C 89.088 277.140,89.450 277.745,89.575 277.879 C 89.700 278.012,89.863 278.315,89.937 278.552 C 90.010 278.789,90.128 279.026,90.198 279.079 C 90.457 279.273,91.363 280.980,91.363 281.272 C 91.363 281.438,91.487 281.574,91.638 281.574 C 91.790 281.574,92.023 281.876,92.157 282.246 C 92.290 282.615,92.463 282.917,92.541 282.917 C 92.618 282.917,92.791 283.220,92.924 283.589 C 93.058 283.959,93.218 284.261,93.279 284.261 C 93.341 284.261,93.648 284.755,93.961 285.358 C 94.274 285.961,94.631 286.565,94.754 286.700 C 94.877 286.834,95.035 287.204,95.105 287.522 C 95.175 287.840,95.290 288.100,95.361 288.100 C 95.432 288.101,95.749 288.597,96.065 289.202 C 96.382 289.808,96.749 290.419,96.881 290.559 C 97.013 290.699,97.121 290.938,97.121 291.089 C 97.121 291.599,302.813 291.490,302.975 290.979 C 303.042 290.768,303.168 290.595,303.255 290.595 C 303.342 290.595,303.466 290.385,303.530 290.129 C 303.595 289.872,303.755 289.547,303.887 289.407 C 304.019 289.267,304.386 288.635,304.702 288.002 C 305.019 287.370,305.326 286.809,305.385 286.756 C 305.444 286.703,305.606 286.380,305.744 286.036 C 305.883 285.693,306.116 285.413,306.261 285.413 C 306.407 285.413,306.526 285.312,306.526 285.190 C 306.526 284.961,308.230 281.939,308.456 281.766 C 308.525 281.713,308.685 281.352,308.812 280.962 C 308.939 280.573,309.103 280.228,309.176 280.195 C 309.249 280.162,309.568 279.638,309.885 279.031 C 310.202 278.425,310.516 277.928,310.584 277.928 C 310.652 277.927,310.760 277.717,310.824 277.461 C 310.888 277.204,311.049 276.879,311.181 276.737 C 311.313 276.596,311.636 276.050,311.900 275.524 C 312.164 274.998,312.514 274.439,312.679 274.280 C 312.843 274.122,313.091 273.712,313.230 273.369 C 313.369 273.025,313.558 272.745,313.651 272.745 C 313.744 272.745,313.820 272.644,313.820 272.522 C 313.820 272.293,315.523 269.271,315.750 269.098 C 315.819 269.045,315.979 268.684,316.106 268.295 C 316.233 267.905,316.396 267.560,316.470 267.527 C 316.543 267.494,316.862 266.970,317.179 266.363 C 317.495 265.757,317.802 265.260,317.860 265.260 C 317.918 265.259,318.074 264.957,318.208 264.587 C 318.342 264.218,318.553 263.914,318.678 263.913 C 318.804 263.912,319.165 263.350,319.482 262.666 C 319.798 261.981,320.105 261.421,320.163 261.420 C 320.221 261.420,320.378 261.118,320.511 260.749 C 320.645 260.379,320.835 260.077,320.934 260.077 C 321.032 260.077,321.113 259.976,321.113 259.854 C 321.113 259.625,322.817 256.603,323.044 256.430 C 323.113 256.377,323.273 256.016,323.399 255.627 C 323.526 255.238,323.690 254.892,323.763 254.859 C 323.836 254.826,324.155 254.302,324.472 253.695 C 324.789 253.089,325.147 252.592,325.267 252.592 C 325.388 252.591,325.539 252.381,325.603 252.125 C 325.668 251.868,325.828 251.544,325.961 251.405 C 326.093 251.266,326.456 250.633,326.768 250.000 C 327.080 249.367,327.387 248.805,327.450 248.752 C 327.513 248.700,327.679 248.376,327.817 248.033 C 327.956 247.690,328.145 247.409,328.238 247.409 C 328.331 247.409,328.407 247.308,328.407 247.186 C 328.407 246.957,330.111 243.935,330.337 243.762 C 330.406 243.709,330.568 243.342,330.697 242.946 C 330.826 242.550,331.033 242.223,331.157 242.218 C 331.281 242.214,331.637 241.696,331.950 241.067 C 332.262 240.438,332.576 239.923,332.649 239.923 C 332.721 239.923,332.833 239.713,332.897 239.457 C 332.961 239.200,333.122 238.876,333.254 238.737 C 333.386 238.598,333.750 237.965,334.061 237.332 C 334.373 236.699,334.680 236.137,334.744 236.084 C 334.807 236.032,334.972 235.708,335.111 235.365 C 335.250 235.022,335.439 234.741,335.532 234.741 C 335.625 234.741,335.701 234.644,335.701 234.526 C 335.701 234.144,337.517 231.105,337.749 231.099 C 337.872 231.096,338.030 230.834,338.100 230.516 C 338.170 230.198,338.328 229.831,338.451 229.699 C 338.575 229.567,338.935 228.964,339.251 228.358 C 339.568 227.752,339.883 227.256,339.950 227.256 C 340.018 227.256,340.126 227.045,340.191 226.789 C 340.255 226.532,340.416 226.208,340.548 226.069 C 340.680 225.930,341.043 225.298,341.355 224.664 C 341.667 224.031,341.974 223.469,342.037 223.417 C 342.101 223.364,342.266 223.040,342.405 222.697 C 342.543 222.354,342.715 222.073,342.787 222.073 C 342.859 222.073,343.020 221.792,343.145 221.449 C 343.271 221.106,343.631 220.525,343.946 220.159 C 344.261 219.792,344.618 219.252,344.740 218.959 C 344.861 218.666,345.025 218.426,345.105 218.426 C 345.184 218.426,345.299 218.177,345.360 217.873 C 345.421 217.569,345.583 217.202,345.720 217.056 C 345.857 216.910,346.228 216.296,346.545 215.690 C 346.862 215.084,347.176 214.588,347.244 214.588 C 347.312 214.588,347.420 214.377,347.484 214.121 C 347.549 213.864,347.709 213.540,347.842 213.401 C 347.974 213.262,348.337 212.630,348.649 211.996 C 348.961 211.363,349.268 210.801,349.331 210.749 C 349.394 210.696,349.560 210.372,349.698 210.029 C 349.837 209.686,350.070 209.405,350.215 209.405 C 350.361 209.405,350.480 209.305,350.480 209.182 C 350.480 208.955,352.182 205.934,352.408 205.758 C 352.476 205.705,352.589 205.431,352.658 205.148 C 352.727 204.865,352.892 204.519,353.023 204.378 C 353.155 204.238,353.522 203.628,353.839 203.022 C 354.155 202.416,354.470 201.920,354.538 201.920 C 354.605 201.920,354.714 201.709,354.778 201.453 C 354.842 201.196,355.005 200.873,355.140 200.733 C 355.275 200.594,355.642 199.941,355.956 199.283 C 356.269 198.624,356.617 198.085,356.727 198.083 C 356.838 198.082,357.038 197.778,357.172 197.409 C 357.305 197.039,357.495 196.737,357.594 196.737 C 357.693 196.737,357.774 196.637,357.774 196.514 C 357.774 196.288,359.475 193.266,359.702 193.090 C 359.770 193.037,359.882 192.763,359.952 192.480 C 360.021 192.197,360.185 191.851,360.317 191.710 C 360.449 191.570,360.816 190.960,361.132 190.354 C 361.449 189.748,361.756 189.252,361.814 189.252 C 361.872 189.252,362.028 188.949,362.162 188.580 C 362.296 188.210,362.486 187.908,362.584 187.908 C 362.683 187.908,362.764 187.778,362.764 187.620 C 362.764 187.462,362.843 187.332,362.939 187.332 C 363.035 187.332,363.310 186.922,363.549 186.420 C 363.789 185.919,364.039 185.465,364.105 185.413 C 364.171 185.360,364.339 185.036,364.478 184.693 C 364.616 184.350,364.806 184.069,364.899 184.069 C 364.991 184.069,365.067 183.969,365.067 183.846 C 365.067 183.620,366.769 180.598,366.996 180.422 C 367.064 180.369,367.176 180.095,367.245 179.812 C 367.314 179.529,367.479 179.183,367.611 179.042 C 367.742 178.902,368.109 178.292,368.426 177.686 C 368.743 177.080,369.101 176.585,369.221 176.584 C 369.342 176.584,369.493 176.374,369.557 176.117 C 369.622 175.861,369.782 175.537,369.914 175.397 C 370.047 175.258,370.410 174.626,370.722 173.992 C 371.034 173.359,371.340 172.798,371.404 172.745 C 371.467 172.692,371.632 172.368,371.771 172.025 C 371.910 171.682,372.099 171.401,372.192 171.401 C 372.285 171.401,372.361 171.301,372.361 171.178 C 372.361 170.952,374.063 167.930,374.289 167.754 C 374.357 167.702,374.470 167.427,374.539 167.144 C 374.608 166.861,374.783 166.511,374.927 166.367 C 375.071 166.223,375.250 165.915,375.324 165.682 C 375.397 165.449,375.540 165.259,375.640 165.259 C 375.740 165.259,375.966 164.957,376.142 164.587 C 376.318 164.218,376.524 163.916,376.598 163.916 C 376.673 163.916,376.786 163.706,376.851 163.449 C 376.915 163.193,377.076 162.869,377.209 162.729 C 377.341 162.590,377.698 161.958,378.003 161.324 C 378.307 160.691,378.614 160.130,378.684 160.077 C 378.755 160.024,378.926 159.700,379.065 159.357 C 379.204 159.014,379.393 158.733,379.486 158.733 C 379.579 158.733,379.655 158.633,379.655 158.510 C 379.655 158.236,381.405 155.207,381.615 155.118 C 381.698 155.083,381.766 154.926,381.766 154.769 C 381.766 154.612,381.874 154.363,382.006 154.216 C 382.462 153.706,382.632 153.442,383.205 152.348 C 383.522 151.744,383.837 151.249,383.904 151.248 C 383.972 151.248,384.080 151.038,384.145 150.781 C 384.209 150.525,384.372 150.201,384.506 150.061 C 384.641 149.922,385.005 149.268,385.315 148.608 C 385.625 147.949,385.938 147.409,386.009 147.409 C 386.080 147.409,386.191 147.199,386.256 146.942 C 386.320 146.686,386.481 146.359,386.613 146.216 C 386.744 146.073,387.108 145.462,387.421 144.859 C 387.734 144.256,388.060 143.762,388.144 143.762 C 388.229 143.762,388.442 143.460,388.618 143.090 C 388.795 142.721,388.998 142.418,389.071 142.418 C 389.144 142.418,389.253 142.170,389.314 141.866 C 389.375 141.562,389.537 141.194,389.674 141.048 C 389.811 140.903,390.182 140.288,390.499 139.682 C 390.816 139.077,391.130 138.581,391.198 138.580 C 391.266 138.580,391.374 138.370,391.438 138.113 C 391.503 137.857,391.664 137.533,391.796 137.393 C 391.928 137.254,392.286 136.622,392.590 135.988 C 392.894 135.355,393.201 134.794,393.272 134.741 C 393.342 134.688,393.513 134.364,393.652 134.021 C 393.791 133.678,393.980 133.397,394.073 133.397 C 394.166 133.397,394.242 133.275,394.242 133.125 C 394.242 132.976,394.314 132.825,394.401 132.790 C 394.489 132.754,394.939 132.078,395.402 131.286 C 395.866 130.494,396.299 129.803,396.365 129.750 C 396.432 129.698,396.543 129.423,396.612 129.140 C 396.681 128.857,396.845 128.511,396.977 128.371 C 397.109 128.230,397.476 127.620,397.793 127.014 C 398.109 126.409,398.416 125.913,398.474 125.912 C 398.532 125.912,398.689 125.609,398.822 125.240 C 398.956 124.870,399.136 124.568,399.222 124.568 C 399.309 124.568,399.424 124.397,399.479 124.188 C 399.662 123.486,398.971 124.083,394.970 128.080 C 392.828 130.220,390.311 132.635,389.378 133.446 C 388.445 134.258,387.446 135.248,387.156 135.647 C 386.511 136.538,382.954 139.931,381.738 140.817 C 381.247 141.174,380.606 141.788,380.312 142.182 C 379.548 143.206,375.974 146.833,375.731 146.831 C 375.619 146.830,374.099 148.276,372.353 150.046 C 368.569 153.881,358.863 163.329,357.434 164.569 C 356.878 165.051,355.785 166.160,355.004 167.032 C 353.522 168.689,350.628 171.401,350.343 171.401 C 350.110 171.401,348.369 173.195,348.369 173.435 C 348.369 173.676,345.073 176.872,343.371 178.282 C 342.689 178.847,341.559 179.975,340.861 180.789 C 340.163 181.603,338.959 182.825,338.186 183.505 C 337.414 184.185,335.347 186.166,333.593 187.908 C 331.839 189.650,329.257 192.155,327.855 193.474 C 326.454 194.794,324.688 196.521,323.933 197.313 C 321.699 199.653,319.517 201.724,318.982 202.014 C 318.707 202.163,317.601 203.282,316.524 204.501 C 315.447 205.719,313.815 207.335,312.897 208.091 C 310.805 209.813,309.405 211.150,309.405 211.426 C 309.405 211.668,306.768 214.216,304.445 216.219 C 303.588 216.958,302.878 217.692,302.868 217.850 C 302.851 218.106,302.836 218.106,302.738 217.850 C 302.568 217.410,300.021 213.648,299.623 213.251 C 299.431 213.058,298.904 212.265,298.452 211.489 C 298.001 210.712,296.968 209.083,296.158 207.869 C 295.347 206.655,294.537 205.377,294.357 205.028 C 294.177 204.679,293.869 204.234,293.674 204.038 C 293.179 203.544,291.363 200.829,291.363 200.584 C 291.363 200.474,291.276 200.384,291.171 200.384 C 291.065 200.384,290.979 200.254,290.979 200.096 C 290.979 199.938,290.893 199.808,290.787 199.808 C 290.681 199.808,290.595 199.679,290.595 199.520 C 290.595 199.362,290.509 199.232,290.403 199.232 C 290.298 199.232,290.211 199.060,290.211 198.848 C 290.211 198.637,290.125 198.464,290.019 198.464 C 289.914 198.464,289.827 198.335,289.827 198.177 C 289.827 198.018,289.741 197.889,289.635 197.889 C 289.530 197.889,289.443 197.759,289.443 197.601 C 289.443 197.442,289.357 197.313,289.251 197.313 C 289.146 197.313,289.060 197.183,289.060 197.025 C 289.060 196.867,288.973 196.737,288.868 196.737 C 288.762 196.737,288.676 196.607,288.676 196.449 C 288.676 196.291,288.589 196.161,288.484 196.161 C 288.378 196.161,288.292 196.032,288.292 195.873 C 288.292 195.715,288.205 195.585,288.100 195.585 C 287.994 195.585,287.908 195.456,287.908 195.298 C 287.908 195.139,287.821 195.010,287.716 195.010 C 287.610 195.010,287.524 194.880,287.524 194.722 C 287.524 194.563,287.394 194.434,287.236 194.434 C 287.078 194.434,286.948 194.304,286.948 194.146 C 286.948 193.988,286.862 193.858,286.756 193.858 C 286.651 193.858,286.564 193.728,286.564 193.570 C 286.564 193.412,286.478 193.282,286.372 193.282 C 286.267 193.282,286.180 193.153,286.180 192.994 C 286.180 192.836,286.094 192.706,285.988 192.706 C 285.883 192.706,285.797 192.534,285.797 192.322 C 285.797 192.111,285.710 191.939,285.605 191.939 C 285.499 191.939,285.413 191.816,285.413 191.667 C 285.413 191.517,285.340 191.366,285.252 191.331 C 285.060 191.254,282.155 186.930,281.689 186.026 C 281.509 185.678,281.199 185.229,280.999 185.030 C 280.614 184.644,277.543 180.124,277.543 179.942 C 277.543 179.775,274.840 175.745,274.583 175.528 C 274.302 175.291,273.129 173.586,273.129 173.415 C 273.129 173.347,272.308 172.040,271.304 170.512 C 270.301 168.983,269.346 167.474,269.183 167.157 C 269.019 166.841,268.723 166.420,268.525 166.222 C 268.031 165.727,265.451 161.865,265.451 161.619 C 265.451 161.510,265.365 161.420,265.259 161.420 C 265.154 161.420,265.067 161.248,265.067 161.036 C 265.067 160.825,264.981 160.653,264.875 160.653 C 264.770 160.653,264.683 160.523,264.683 160.365 C 264.683 160.206,264.597 160.077,264.491 160.077 C 264.386 160.077,264.299 159.947,264.299 159.789 C 264.299 159.631,264.213 159.501,264.107 159.501 C 264.002 159.501,263.916 159.371,263.916 159.213 C 263.916 159.055,263.829 158.925,263.724 158.925 C 263.618 158.925,263.532 158.796,263.532 158.637 C 263.532 158.479,263.445 158.349,263.340 158.349 C 263.234 158.349,263.148 158.220,263.148 158.061 C 263.148 157.903,263.061 157.774,262.956 157.774 C 262.850 157.774,262.764 157.644,262.764 157.486 C 262.764 157.327,262.678 157.198,262.572 157.198 C 262.466 157.198,262.380 157.068,262.380 156.910 C 262.380 156.751,262.250 156.622,262.092 156.622 C 261.934 156.622,261.804 156.492,261.804 156.334 C 261.804 156.176,261.718 156.046,261.612 156.046 C 261.507 156.046,261.420 155.917,261.420 155.758 C 261.420 155.600,261.334 155.470,261.228 155.470 C 261.123 155.470,261.036 155.341,261.036 155.182 C 261.036 155.024,260.950 154.894,260.845 154.894 C 260.739 154.894,260.653 154.722,260.653 154.511 C 260.653 154.299,260.566 154.127,260.461 154.127 C 260.355 154.127,260.269 153.997,260.269 153.839 C 260.269 153.680,260.182 153.551,260.077 153.551 C 259.971 153.551,259.885 153.421,259.885 153.263 C 259.885 153.105,259.798 152.975,259.693 152.975 C 259.587 152.975,259.501 152.853,259.501 152.703 C 259.501 152.554,259.429 152.402,259.342 152.367 C 259.149 152.290,257.003 149.104,256.544 148.214 C 256.365 147.866,256.055 147.417,255.855 147.218 C 255.470 146.832,252.399 142.312,252.399 142.130 C 252.399 141.964,249.696 137.933,249.439 137.716 C 249.173 137.492,247.985 135.778,247.985 135.620 C 247.985 135.560,247.099 134.151,246.017 132.487 C 244.935 130.824,243.924 129.219,243.770 128.921 C 243.617 128.624,243.306 128.192,243.081 127.962 C 242.437 127.304,239.923 123.462,239.923 123.135 C 239.923 122.973,239.837 122.841,239.731 122.841 C 239.626 122.841,239.539 122.711,239.539 122.553 C 239.539 122.394,239.453 122.265,239.347 122.265 C 239.242 122.265,239.155 122.135,239.155 121.977 C 239.155 121.819,239.069 121.689,238.964 121.689 C 238.858 121.689,238.772 121.560,238.772 121.401 C 238.772 121.243,238.685 121.113,238.580 121.113 C 238.474 121.113,238.388 120.984,238.388 120.825 C 238.388 120.667,238.301 120.537,238.196 120.537 C 238.090 120.537,238.004 120.408,238.004 120.250 C 238.004 120.091,237.917 119.962,237.812 119.962 C 237.706 119.962,237.620 119.832,237.620 119.674 C 237.620 119.515,237.534 119.386,237.428 119.386 C 237.322 119.386,237.236 119.256,237.236 119.098 C 237.236 118.940,237.150 118.810,237.044 118.810 C 236.939 118.810,236.852 118.680,236.852 118.522 C 236.852 118.364,236.723 118.234,236.564 118.234 C 236.406 118.234,236.276 118.105,236.276 117.946 C 236.276 117.788,236.190 117.658,236.084 117.658 C 235.979 117.658,235.893 117.529,235.893 117.370 C 235.893 117.212,235.806 117.083,235.701 117.083 C 235.595 117.083,235.509 116.910,235.509 116.699 C 235.509 116.488,235.422 116.315,235.317 116.315 C 235.211 116.315,235.125 116.185,235.125 116.027 C 235.125 115.869,235.038 115.739,234.933 115.739 C 234.827 115.739,234.741 115.609,234.741 115.451 C 234.741 115.293,234.655 115.163,234.549 115.163 C 234.443 115.163,234.357 115.034,234.357 114.875 C 234.357 114.717,234.271 114.587,234.165 114.587 C 234.060 114.587,233.973 114.465,233.973 114.315 C 233.973 114.166,233.902 114.015,233.815 113.980 C 233.633 113.906,231.998 111.479,231.219 110.125 C 230.930 109.623,230.537 109.062,230.346 108.877 C 229.980 108.524,227.255 104.505,227.255 104.319 C 227.255 104.134,224.229 99.684,223.756 99.174 C 223.509 98.907,223.181 98.444,223.026 98.145 C 222.872 97.846,221.881 96.262,220.825 94.626 C 219.769 92.989,218.780 91.407,218.626 91.109 C 218.472 90.812,218.160 90.380,217.932 90.150 C 217.408 89.620,214.537 85.277,214.184 84.478 C 214.037 84.147,213.853 83.877,213.773 83.877 C 213.693 83.877,213.628 83.748,213.628 83.589 C 213.628 83.431,213.541 83.301,213.436 83.301 C 213.330 83.301,213.244 83.172,213.244 83.013 C 213.244 82.855,213.157 82.726,213.052 82.726 C 212.946 82.726,212.860 82.596,212.860 82.438 C 212.860 82.279,212.774 82.150,212.668 82.150 C 212.562 82.150,212.476 82.020,212.476 81.862 C 212.476 81.703,212.390 81.574,212.284 81.574 C 212.179 81.574,212.092 81.444,212.092 81.286 C 212.092 81.128,212.006 80.998,211.900 80.998 C 211.795 80.998,211.708 80.869,211.708 80.710 C 211.708 80.552,211.579 80.422,211.420 80.422 C 211.262 80.422,211.132 80.293,211.132 80.134 C 211.132 79.976,211.046 79.846,210.940 79.846 C 210.835 79.846,210.749 79.717,210.749 79.559 C 210.749 79.400,210.662 79.271,210.557 79.271 C 210.451 79.271,210.365 79.098,210.365 78.887 C 210.365 78.676,210.278 78.503,210.173 78.503 C 210.067 78.503,209.981 78.373,209.981 78.215 C 209.981 78.057,209.894 77.927,209.789 77.927 C 209.683 77.927,209.597 77.798,209.597 77.639 C 209.597 77.481,209.511 77.351,209.405 77.351 C 209.299 77.351,209.213 77.222,209.213 77.063 C 209.213 76.905,209.127 76.775,209.021 76.775 C 208.916 76.775,208.829 76.646,208.829 76.488 C 208.829 76.329,208.743 76.200,208.637 76.200 C 208.532 76.200,208.445 76.070,208.445 75.912 C 208.445 75.753,208.359 75.624,208.253 75.624 C 208.148 75.624,208.061 75.501,208.061 75.352 C 208.061 75.202,207.991 75.051,207.904 75.016 C 207.726 74.944,206.361 72.914,205.970 72.138 C 205.828 71.858,205.485 71.378,205.207 71.072 C 204.750 70.569,203.945 69.366,201.016 64.811 L 200.049 63.308 199.604 63.947 " stroke="none" fill="#fce40c" fill-rule="evenodd"></path><path id="path1" d="M2.687 125.755 C 4.557 127.452,4.885 127.712,4.127 126.898 C 3.704 126.444,3.186 125.982,2.975 125.871 C 2.764 125.759,2.634 125.707,2.687 125.755 M392.219 130.758 L 391.267 131.766 392.274 130.813 C 392.829 130.289,393.282 129.836,393.282 129.806 C 393.282 129.662,393.104 129.822,392.219 130.758 M11.420 134.165 C 11.940 134.693,12.409 135.125,12.462 135.125 C 12.514 135.125,12.132 134.693,11.612 134.165 C 11.092 133.637,10.624 133.205,10.571 133.205 C 10.518 133.205,10.900 133.637,11.420 134.165 M384.453 138.292 C 383.987 138.767,383.648 139.155,383.701 139.155 C 383.754 139.155,384.179 138.767,384.645 138.292 C 385.111 137.817,385.449 137.428,385.397 137.428 C 385.344 137.428,384.919 137.817,384.453 138.292 M19.181 141.795 C 19.643 142.349,20.059 142.802,20.104 142.802 C 20.234 142.802,19.052 141.354,18.679 141.056 C 18.493 140.908,18.719 141.240,19.181 141.795 M376.672 145.921 L 375.720 146.929 376.727 145.977 C 377.282 145.453,377.735 144.999,377.735 144.969 C 377.735 144.826,377.557 144.985,376.672 145.921 M26.967 149.520 C 27.487 150.048,27.956 150.480,28.009 150.480 C 28.061 150.480,27.679 150.048,27.159 149.520 C 26.639 148.992,26.171 148.560,26.118 148.560 C 26.065 148.560,26.447 148.992,26.967 149.520 M368.895 153.374 L 367.850 154.348 368.954 153.433 C 369.967 152.593,370.163 152.399,369.998 152.399 C 369.965 152.399,369.469 152.838,368.895 153.374 M33.973 156.288 C 33.973 156.333,34.427 156.748,34.981 157.210 C 35.535 157.673,35.867 157.899,35.719 157.713 C 35.421 157.340,33.973 156.158,33.973 156.288 M361.036 161.036 C 360.595 161.564,360.276 161.996,360.329 161.996 C 360.382 161.996,360.786 161.564,361.228 161.036 C 361.670 160.509,361.989 160.077,361.936 160.077 C 361.883 160.077,361.478 160.509,361.036 161.036 M42.706 164.683 C 43.226 165.211,43.695 165.643,43.748 165.643 C 43.800 165.643,43.418 165.211,42.898 164.683 C 42.378 164.155,41.910 163.724,41.857 163.724 C 41.804 163.724,42.186 164.155,42.706 164.683 M353.256 168.762 L 352.303 169.770 353.311 168.817 C 353.865 168.293,354.319 167.840,354.319 167.810 C 354.319 167.666,354.141 167.826,353.256 168.762 M50.384 172.169 C 50.904 172.697,51.372 173.129,51.425 173.129 C 51.478 173.129,51.096 172.697,50.576 172.169 C 50.056 171.641,49.587 171.209,49.535 171.209 C 49.482 171.209,49.864 171.641,50.384 172.169 M345.489 176.296 C 345.023 176.771,344.685 177.159,344.738 177.159 C 344.791 177.159,345.215 176.771,345.681 176.296 C 346.148 175.821,346.486 175.432,346.433 175.432 C 346.380 175.432,345.956 175.821,345.489 176.296 M58.157 179.846 C 58.599 180.374,59.004 180.806,59.057 180.806 C 59.110 180.806,58.791 180.374,58.349 179.846 C 57.907 179.319,57.503 178.887,57.450 178.887 C 57.397 178.887,57.715 179.319,58.157 179.846 M337.620 183.905 L 336.564 184.879 337.571 184.073 C 338.455 183.366,338.922 182.904,338.735 182.924 C 338.702 182.927,338.201 183.368,337.620 183.905 M65.124 186.691 C 65.288 186.959,67.179 188.558,67.179 188.429 C 67.179 188.379,66.685 187.918,66.083 187.403 C 65.480 186.889,65.048 186.568,65.124 186.691 M329.839 191.411 L 328.887 192.418 329.894 191.466 C 330.449 190.942,330.902 190.489,330.902 190.458 C 330.902 190.315,330.724 190.474,329.839 191.411 M73.888 195.058 C 74.684 195.905,74.856 196.057,74.856 195.913 C 74.856 195.882,74.446 195.472,73.944 195.002 L 73.033 194.146 73.888 195.058 M321.975 199.184 C 321.459 199.791,321.236 200.115,321.480 199.904 C 321.943 199.503,323.120 198.081,322.989 198.081 C 322.948 198.081,322.492 198.577,321.975 199.184 M81.670 202.687 C 82.190 203.215,82.658 203.647,82.711 203.647 C 82.764 203.647,82.382 203.215,81.862 202.687 C 81.342 202.159,80.873 201.727,80.821 201.727 C 80.768 201.727,81.150 202.159,81.670 202.687 M314.292 206.766 L 313.340 207.774 314.347 206.821 C 314.902 206.297,315.355 205.844,315.355 205.813 C 315.355 205.670,315.177 205.829,314.292 206.766 M89.347 210.173 C 89.867 210.701,90.336 211.132,90.389 211.132 C 90.441 211.132,90.059 210.701,89.539 210.173 C 89.019 209.645,88.551 209.213,88.498 209.213 C 88.445 209.213,88.828 209.645,89.347 210.173 M306.430 214.336 C 305.902 214.821,305.729 215.042,306.046 214.826 C 306.585 214.458,307.650 213.425,307.471 213.444 C 307.426 213.449,306.958 213.850,306.430 214.336 M116.186 291.507 C 126.619 291.534,143.635 291.534,153.998 291.507 C 164.361 291.479,155.825 291.457,135.029 291.457 C 114.232 291.457,105.753 291.479,116.186 291.507 M246.129 291.507 C 256.562 291.534,273.577 291.534,283.940 291.507 C 294.304 291.479,285.768 291.457,264.971 291.457 C 244.175 291.457,235.695 291.479,246.129 291.507 " stroke="none" fill="#ecd424" fill-rule="evenodd"></path><path id="path2" d="M1.631 124.760 C 2.151 125.288,2.620 125.720,2.673 125.720 C 2.725 125.720,2.343 125.288,1.823 124.760 C 1.304 124.232,0.835 123.800,0.782 123.800 C 0.729 123.800,1.112 124.232,1.631 124.760 M394.281 128.562 C 393.732 129.070,393.282 129.564,393.282 129.659 C 393.282 129.754,393.520 129.574,393.810 129.259 C 394.100 128.943,394.595 128.450,394.909 128.162 C 395.224 127.875,395.436 127.639,395.381 127.639 C 395.325 127.639,394.831 128.055,394.281 128.562 M8.445 131.341 C 8.445 131.391,8.938 131.852,9.541 132.366 C 10.144 132.881,10.575 133.201,10.500 133.079 C 10.335 132.811,8.445 131.212,8.445 131.341 M386.288 136.431 C 385.351 137.510,385.349 137.514,386.159 136.756 C 386.841 136.118,387.499 135.287,387.291 135.327 C 387.261 135.333,386.809 135.830,386.288 136.431 M17.370 139.923 C 17.890 140.451,18.359 140.883,18.412 140.883 C 18.464 140.883,18.082 140.451,17.562 139.923 C 17.042 139.395,16.574 138.964,16.521 138.964 C 16.468 138.964,16.851 139.395,17.370 139.923 M378.592 144.002 L 377.639 145.010 378.647 144.057 C 379.201 143.533,379.655 143.080,379.655 143.049 C 379.655 142.906,379.477 143.066,378.592 144.002 M25.057 147.417 C 25.580 148.003,26.047 148.453,26.095 148.418 C 26.142 148.383,25.714 147.904,25.143 147.354 L 24.106 146.353 25.057 147.417 M370.825 151.536 C 370.359 152.011,370.021 152.399,370.074 152.399 C 370.126 152.399,370.551 152.011,371.017 151.536 C 371.483 151.060,371.822 150.672,371.769 150.672 C 371.716 150.672,371.292 151.060,370.825 151.536 M32.389 154.607 C 32.608 154.923,33.072 155.441,33.422 155.758 C 33.892 156.184,33.838 156.083,33.218 155.374 C 32.085 154.080,31.919 153.926,32.389 154.607 M362.956 159.144 L 361.900 160.119 362.907 159.313 C 363.791 158.606,364.258 158.144,364.071 158.163 C 364.038 158.167,363.536 158.608,362.956 159.144 M40.019 162.171 C 40.420 162.634,41.843 163.811,41.843 163.680 C 41.843 163.639,41.346 163.183,40.739 162.666 C 40.132 162.150,39.808 161.927,40.019 162.171 M355.209 166.594 C 354.719 167.118,354.319 167.607,354.319 167.682 C 354.319 167.757,354.346 167.782,354.380 167.738 C 354.413 167.694,354.857 167.205,355.366 166.651 C 355.874 166.096,356.247 165.643,356.195 165.643 C 356.142 165.643,355.698 166.071,355.209 166.594 M48.552 170.298 C 49.348 171.145,49.520 171.297,49.520 171.153 C 49.520 171.122,49.110 170.712,48.608 170.241 L 47.697 169.386 48.552 170.298 M347.322 174.464 L 346.371 175.528 347.408 174.527 C 347.979 173.977,348.407 173.498,348.359 173.463 C 348.312 173.428,347.845 173.878,347.322 174.464 M56.334 177.927 C 56.854 178.455,57.322 178.887,57.375 178.887 C 57.428 178.887,57.046 178.455,56.526 177.927 C 56.006 177.399,55.537 176.967,55.485 176.967 C 55.432 176.967,55.814 177.399,56.334 177.927 M339.628 182.006 L 338.676 183.013 339.683 182.061 C 340.238 181.537,340.691 181.084,340.691 181.053 C 340.691 180.910,340.513 181.069,339.628 182.006 M64.005 185.413 C 64.522 185.993,64.984 186.512,65.032 186.564 C 65.080 186.617,65.028 186.488,64.916 186.276 C 64.805 186.065,64.343 185.547,63.889 185.125 C 63.076 184.368,63.078 184.372,64.005 185.413 M331.766 189.577 C 331.238 190.064,330.979 190.370,331.190 190.257 C 331.555 190.061,332.991 188.667,332.811 188.683 C 332.764 188.687,332.294 189.090,331.766 189.577 M71.172 192.418 C 71.371 192.809,72.215 193.633,72.754 193.964 C 72.917 194.064,72.831 193.955,72.562 193.722 C 72.293 193.489,71.826 193.014,71.524 192.666 C 71.222 192.319,71.064 192.207,71.172 192.418 M323.889 197.169 L 322.937 198.177 323.944 197.224 C 324.499 196.700,324.952 196.247,324.952 196.216 C 324.952 196.073,324.774 196.233,323.889 197.169 M78.715 199.856 C 78.761 199.882,79.272 200.336,79.851 200.864 L 80.902 201.823 79.950 200.816 C 79.426 200.262,78.915 199.808,78.814 199.808 C 78.713 199.808,78.669 199.830,78.715 199.856 M316.487 204.367 C 315.844 205.054,315.059 206.063,315.479 205.662 C 315.936 205.225,317.317 203.647,317.242 203.647 C 317.197 203.647,316.858 203.971,316.487 204.367 M87.516 208.301 C 88.311 209.149,88.484 209.301,88.484 209.157 C 88.484 209.126,88.073 208.716,87.572 208.245 L 86.660 207.390 87.516 208.301 M308.358 212.468 L 307.407 213.532 308.445 212.531 C 309.016 211.980,309.444 211.502,309.396 211.467 C 309.348 211.432,308.881 211.882,308.358 212.468 M95.298 215.931 C 95.817 216.459,96.286 216.891,96.339 216.891 C 96.392 216.891,96.009 216.459,95.489 215.931 C 94.970 215.403,94.501 214.971,94.448 214.971 C 94.395 214.971,94.778 215.403,95.298 215.931 M186.324 291.507 C 193.846 291.535,206.154 291.535,213.676 291.507 C 221.197 291.479,215.043 291.456,200.000 291.456 C 184.957 291.456,178.803 291.479,186.324 291.507 " stroke="none" fill="#dccc5c" fill-rule="evenodd"></path><path id="path3" d="" stroke="none" fill="#100d814" fill-rule="evenodd"></path><path id="path4" d="" stroke="none" fill="#100d814" fill-rule="evenodd"></path></g></svg>